<?xml version="1.0" encoding="UTF-8"?> <svg xmlns="http://www.w3.org/2000/svg" xmlns:xlink="http://www.w3.org/1999/xlink" width="205px" height="35px" viewBox="0 0 205 35"><!-- Generator: Sketch 55.2 (78181) - https://sketchapp.com --><title>BTCHABER</title><desc>Created with Sketch.</desc><g id="Homepage" stroke="none" stroke-width="1" fill="none" fill-rule="evenodd"><g id="Homepage_v2_btc" transform="translate(-48.000000, -75.000000)" fill-rule="nonzero"><g id="BTCHABER" transform="translate(48.930000, 75.771000)"><path d="M8.366,16.779 C10.34,17.39 10.2931936,19.458 10.2931936,19.458 L10.2931936,29.093 C10.246,31.396 8.413,33.229 6.11,33.229 L7.10542736e-14,33.229 L7.10542736e-14,0.329 L6.11,0.329 C8.413,0.329 10.246,2.162 10.2931936,4.465 L10.2931936,14.1 C10.2931936,14.1 10.34,16.168 8.366,16.779 Z M6.909,13.301 L6.909,5.405 C6.909,4.183 6.063,3.713 5.17,3.713 L3.337,3.713 L3.337,15.228 L5.17,15.228 C6.063,15.228 6.909,14.805 6.909,13.301 Z M6.909,28.153 L6.909,20.21 C6.909,18.753 6.063,18.33 5.17,18.33 L3.337,18.33 L3.337,29.892 L5.17,29.892 C6.063,29.892 6.909,29.422 6.909,28.153 Z M39.997,0.329 L38.869,2.773 C38.681,3.196 38.164,3.666 37.083,3.666 L34.451,3.666 C33.981,3.666 33.652,4.042 33.605,4.465 L33.605,33.229 L31.208,33.229 C30.409,33.229 30.268,32.759 30.268,32.524 L30.268,3.666 L25.521,3.666 L25.521,1.363 C25.521,0.799 25.991,0.329 26.555,0.329 L39.997,0.329 Z M64.484,21.432 L64.484,29.375 C64.484,31.631 62.698,33.464 60.442,33.558 L58.374,33.558 C56.024,33.558 54.144,31.678 54.144,29.375 L54.144,4.183 C54.144,1.88 56.024,-7.10542736e-15 58.374,-7.10542736e-15 L60.442,-7.10542736e-15 C62.698,0.047 64.484,1.927 64.484,4.183 L64.484,9.212 C64.484,10.293 64.014,10.81 63.591,10.998 L61.147,12.126 L61.147,4.747 C61.147,3.76 60.348,2.961 59.314,2.961 C58.327,2.961 57.528,3.76 57.528,4.747 L57.528,28.764 C57.528,29.798 58.327,30.597 59.314,30.597 C60.348,30.597 61.147,29.798 61.147,28.764 L61.147,24.346 C61.147,23.265 61.617,22.748 62.04,22.513 C62.322,22.372 63.638,21.808 64.484,21.432 Z" id="BTC" fill="#EEAC3C"></path><path d="M89.676,0.329 L91.697,0.329 C92.731,0.329 93.06,1.081 93.06,1.645 L93.06,33.229 L89.676,33.229 L89.676,18.894 C89.629,18.471 89.3,18.142 88.877,18.142 L85.211,18.142 L85.211,33.229 L81.827,33.229 L81.827,1.645 C81.827,1.081 82.156,0.329 83.19,0.329 L85.211,0.329 L85.211,13.63 C85.211,14.57 85.587,14.805 86.386,14.805 L89.676,14.805 L89.676,0.329 Z M121.495,33.229 L117.782,33.229 L114.821,10.575 L111.86,33.229 L108.147,33.229 L113.129,0.329 L114.962,0.329 C116.372,0.329 116.607,1.222 116.748,2.115 L121.495,33.229 Z M145.136,16.779 C147.11,17.39 147.063194,19.458 147.063194,19.458 L147.063194,29.093 C147.016,31.396 145.183,33.229 142.88,33.229 L136.77,33.229 L136.77,0.329 L142.88,0.329 C145.183,0.329 147.016,2.162 147.063194,4.465 L147.063194,14.1 C147.063194,14.1 147.11,16.168 145.136,16.779 Z M143.679,13.301 L143.679,5.405 C143.679,4.183 142.833,3.713 141.94,3.713 L140.107,3.713 L140.107,15.228 L141.94,15.228 C142.833,15.228 143.679,14.805 143.679,13.301 Z M143.679,28.153 L143.679,20.21 C143.679,18.753 142.833,18.33 141.94,18.33 L140.107,18.33 L140.107,29.892 L141.94,29.892 C142.833,29.892 143.679,29.422 143.679,28.153 Z M169.717,29.892 L176.767,29.892 C176.391,30.738 175.827,32.054 175.686,32.336 C175.451,32.759 174.934,33.229 173.853,33.229 L166.333,33.229 L166.333,1.269 C166.38,0.752 166.803,0.329 167.367,0.329 L176.156,0.329 L175.028,2.773 C174.84,3.196 174.323,3.713 173.242,3.713 L170.516,3.713 C170.046,3.713 169.717,4.042 169.717,4.512 L169.717,14.288 L174.793,14.288 C174.417,15.134 173.853,16.497 173.712,16.779 C173.477,17.202 173.007,17.672 171.926,17.672 L170.516,17.672 C170.093,17.672 169.717,18.048 169.717,18.471 L169.717,29.892 Z M203.416,33.229 L200.032,33.229 L200.032,21.197 C200.032,19.599 199.186,19.082 198.293,19.082 L196.507,19.082 L196.507,33.229 L193.123,33.229 L193.123,0.329 L199.28,0.329 C201.536,0.329 203.416,2.162 203.416,4.465 L203.416,14.617 C203.416,14.617 203.557,17.202 202.194,17.531 C203.51,18.189 203.416,20.633 203.416,20.633 L203.416,33.229 Z M196.507,15.886 L198.293,15.886 C199.186,15.886 200.032,15.51 200.032,14.006 L200.032,5.17 C200.032,3.948 199.186,3.478 198.293,3.478 L196.507,3.478 L196.507,15.886 Z" id="HABER" fill="#FFFFFF"></path></g></g></g></svg> 