<svg width="131" height="33" viewBox="0 0 131 33" fill="none" xmlns="http://www.w3.org/2000/svg">
<path d="M72.1198 17.2664C71.9312 15.8953 71.8605 14.5474 72.8976 13.8037C71.1534 14.5939 70.1164 13.7805 69.81 14.9192C69.6214 15.5699 69.2914 15.872 68.8672 16.1277C69.1736 17.6382 69.7393 19.0558 70.5171 20.3572C70.5406 20.3108 70.5406 20.2643 70.5642 20.2178C70.8706 19.265 72.2848 18.4516 72.1198 17.2664Z" fill="#EBBC06"/>
<path d="M70.9428 13.5951C72.7812 13.5951 73.0876 11.9218 76.1516 12.131C80.1585 12.4099 80.677 9.10986 82.5154 6.6C84.3539 4.09014 86.0509 5.85634 87.6065 6.22817C88.6435 6.46056 89.1621 6.6 89.7749 6.69296C89.4449 7.20422 89.6099 7.71549 90.0813 7.99437C89.9399 7.34366 89.7513 7.13451 90.2698 6.55352C90.3641 6.43732 90.647 6.53028 90.7648 6.53028C91.6605 6.53028 93.0746 5.90282 93.9231 5.36831C91.4483 2.11479 87.4179 0 82.6333 0C74.4782 0 68.6094 5.99577 68.6094 13.4092V13.4789C68.6094 14.1528 68.6801 14.8035 68.7744 15.4542C69.3872 14.6641 69.0808 13.5951 70.9428 13.5951Z" fill="#EBBC06"/>
<path d="M94.1087 5.55371C93.7787 6.48329 91.6339 7.48258 90.9504 7.71498C91.3039 7.7847 91.9639 7.6685 92.3646 7.64526C93.378 8.69104 92.7417 9.41146 94.4151 10.7129C94.8158 11.0382 94.8158 11.5727 94.3915 11.9213C92.9302 13.1298 92.6238 12.0143 91.7517 12.1769C90.8797 12.3396 90.3847 12.4326 89.7012 12.1769C89.2062 11.991 88.6406 11.7586 88.5934 12.1305C89.2534 12.2699 89.2769 12.9671 90.3847 13.2227C91.4453 13.4551 93.0481 14.4777 89.2534 16.7784C89.4655 17.4291 88.7584 18.4516 87.8628 18.9164C87.6035 18.5678 87.6742 17.615 87.5092 17.2664C87.3914 17.0108 88.0277 16.7551 88.1927 16.5227C88.3577 16.2903 88.1927 16.3136 88.3577 15.965C88.5227 15.6164 90.0783 15.0122 89.1119 15.2213C88.0513 15.4537 84.4687 16.4995 83.7145 14.896C83.6202 15.2213 83.8324 15.8488 84.6573 16.0812C83.5967 17.3826 81.5932 19.1488 78.0342 18.8234C78.482 18.4516 79.0477 16.6389 78.0578 15.7326C78.647 17.1037 77.4214 18.9629 76.3136 19.4044C72.8489 20.7755 73.3674 21.1009 71.9297 22.3093C74.4516 25.1678 78.2463 27.0037 82.701 27.0037C90.8561 27.0037 96.7249 21.0079 96.7249 13.5946V13.4784C96.7249 10.5269 95.7586 7.7847 94.1087 5.55371Z" fill="#EBBC06"/>
<path d="M0 13.8506V13.8041C0 8.4823 4.07755 4.11328 9.89924 4.11328C13.4818 4.11328 15.6267 5.29849 17.3944 6.99497L14.731 10.0161C13.2697 8.71469 11.7848 7.90131 9.87568 7.90131C6.67021 7.90131 4.36038 10.5274 4.36038 13.7344V13.7809C4.36038 16.9879 6.62307 19.6605 9.87568 19.6605C12.0441 19.6605 13.3875 18.8006 14.8724 17.476L17.5358 20.1253C15.5795 22.1936 13.4111 23.4717 9.75783 23.4717C4.14826 23.495 0 19.2422 0 13.8506Z" fill="#EBBC06"/>
<path d="M17.9141 13.8506V13.8041C17.9141 8.4823 22.1802 4.11328 28.0254 4.11328C33.8943 4.11328 38.0897 8.41258 38.0897 13.7344V13.7809C38.0897 19.1027 33.8236 23.4717 27.9783 23.4717C22.133 23.4717 17.9141 19.1724 17.9141 13.8506ZM33.7293 13.8506V13.8041C33.7293 10.5971 31.3488 7.92455 27.9783 7.92455C24.6078 7.92455 22.2744 10.5506 22.2744 13.7576V13.8041C22.2744 17.0112 24.655 19.6837 28.0254 19.6837C31.3959 19.6837 33.7293 17.0576 33.7293 13.8506Z" fill="#EBBC06"/>
<path d="M41.5781 4.43848H45.75V23.1695H41.5781V4.43848Z" fill="#EBBC06"/>
<path d="M49.2109 4.43848H53.0528L61.9621 15.9652V4.43848H66.0868V23.1695H62.5278L53.3356 11.2709V23.1695H49.2109V4.43848Z" fill="#EBBC06"/>
<path d="M114.616 4.43848L108.276 13.5948L114.899 23.1695H110.02L105.754 16.7554L101.464 23.1695H96.7266L103.35 13.6413L97.0094 4.43848H101.888L105.824 10.504L109.878 4.43848H114.616Z" fill="#EBBC06"/>
<path d="M115.961 20.4272L118.436 17.5223C120.156 18.9166 121.948 19.7997 124.116 19.7997C125.837 19.7997 126.85 19.1258 126.85 18.0335V17.987C126.85 16.9413 126.19 16.4068 123.032 15.6166C119.214 14.6638 116.739 13.618 116.739 9.89972V9.85324C116.739 6.46028 119.496 4.20605 123.385 4.20605C126.143 4.20605 128.524 5.06591 130.433 6.57648L128.264 9.69056C126.591 8.52859 124.917 7.85465 123.315 7.85465C121.712 7.85465 120.863 8.57507 120.863 9.48141V9.52789C120.863 10.7596 121.688 11.1546 124.965 11.9913C128.806 12.9906 130.998 14.3385 130.998 17.6152V17.6617C130.998 21.38 128.123 23.4715 124.022 23.4715C121.146 23.4251 118.224 22.449 115.961 20.4272Z" fill="#EBBC06"/>
<path d="M0 29.3506H1.64987C2.07413 29.3506 2.4041 29.4668 2.61623 29.6759C2.78122 29.8386 2.85193 30.0245 2.85193 30.2802C2.85193 30.7217 2.59266 30.9541 2.33339 31.0935C2.75765 31.233 3.06405 31.4886 3.06405 31.9766C3.06405 32.6273 2.52195 32.9759 1.72058 32.9759H0V29.3506ZM1.50846 30.8611C1.90914 30.8611 2.19198 30.6985 2.19198 30.3731C2.19198 30.0942 1.95628 29.9083 1.5556 29.9083H0.63638V30.8611H1.50846ZM1.69701 32.3717C2.14484 32.3717 2.4041 32.209 2.4041 31.8837C2.4041 31.5816 2.16841 31.3957 1.64987 31.3957H0.63638V32.395H1.69701V32.3717Z" fill="#EBBC06"/>
<path d="M6.05469 29.3506H6.69107V32.3717H8.60021V32.9527H6.05469V29.3506Z" fill="#EBBC06"/>
<path d="M11.2188 31.1402C11.2188 30.1177 12.0201 29.2578 13.1279 29.2578C14.2592 29.2578 15.037 30.0944 15.037 31.117C15.037 32.1395 14.2357 32.9761 13.1279 32.9761C12.0201 32.9994 11.2188 32.1627 11.2188 31.1402ZM14.3771 31.1402C14.3771 30.4198 13.8585 29.8388 13.1279 29.8388C12.3972 29.8388 11.9023 30.4198 11.9023 31.117C11.9023 31.8142 12.4208 32.3951 13.1515 32.3951C13.8585 32.4184 14.3771 31.8606 14.3771 31.1402Z" fill="#EBBC06"/>
<path d="M17.9609 31.1402C17.9609 30.1177 18.7387 29.2578 19.8465 29.2578C20.53 29.2578 20.9307 29.4902 21.2843 29.8156L20.8836 30.2803C20.6007 30.0015 20.2708 29.8388 19.8701 29.8388C19.163 29.8388 18.668 30.3965 18.668 31.117C18.668 31.8141 19.163 32.3951 19.8701 32.3951C20.3179 32.3951 20.6007 32.2092 20.9071 31.9303L21.3078 32.3487C20.9307 32.7437 20.5065 32.9761 19.8229 32.9761C18.7623 32.9994 17.9609 32.186 17.9609 31.1402Z" fill="#EBBC06"/>
<path d="M24.2734 29.3506H24.9098V31.1633L26.654 29.3506H27.4318L25.9233 30.9076L27.5025 32.9527H26.7247L25.4755 31.3259L24.9098 31.9069V32.9527H24.2734V29.3506Z" fill="#EBBC06"/>
<path d="M29.9062 31.1402C29.9062 30.1177 30.684 29.2578 31.7918 29.2578C32.4753 29.2578 32.876 29.4902 33.2296 29.8156L32.8289 30.2803C32.5461 30.0015 32.2161 29.8388 31.8154 29.8388C31.1083 29.8388 30.6133 30.3965 30.6133 31.117C30.6133 31.8141 31.1083 32.3951 31.8154 32.3951C32.2632 32.3951 32.546 32.2092 32.8525 31.9303L33.2531 32.3487C32.876 32.7437 32.4518 32.9761 31.7683 32.9761C30.7076 32.9994 29.9062 32.186 29.9062 31.1402Z" fill="#EBBC06"/>
<path d="M36.2266 29.3506H36.8629V30.8379H38.6071V29.3506H39.2435V32.9527H38.6071V31.4421H36.8629V32.9527H36.2266V29.3506Z" fill="#EBBC06"/>
<path d="M43.7902 29.3047H44.3795L45.9822 32.93H45.2987L44.9216 32.0702H43.201L42.8239 32.93H42.1875L43.7902 29.3047ZM44.7094 31.5124L44.0731 30.0716L43.4367 31.5124H44.7094Z" fill="#EBBC06"/>
<path d="M48.9531 29.3506H49.5895V32.9527H48.9531V29.3506Z" fill="#EBBC06"/>
<path d="M52.8672 29.3506H53.4564L55.4127 31.8372V29.3506H56.0491V32.9527H55.507L53.5036 30.3964V32.9527H52.8672V29.3506Z" fill="#EBBC06"/>
<path d="M64.0612 29.9316H62.9062V29.3506H65.876V29.9316H64.7211V32.9527H64.0847V29.9316H64.0612Z" fill="#EBBC06"/>
<path d="M68.8438 29.3506H71.5543V29.9083H69.4801V30.8379H71.3186V31.3957H69.4801V32.3717H71.5778V32.9295H68.8438V29.3506Z" fill="#EBBC06"/>
<path d="M74.4766 31.1402C74.4766 30.1177 75.2544 29.2578 76.3621 29.2578C77.0456 29.2578 77.4463 29.4902 77.7999 29.8156L77.3992 30.2803C77.1164 30.0015 76.7864 29.8388 76.3857 29.8388C75.6786 29.8388 75.1837 30.3965 75.1837 31.117C75.1837 31.8141 75.6786 32.3951 76.3857 32.3951C76.8335 32.3951 77.1164 32.2092 77.4228 31.9303L77.8234 32.3487C77.4463 32.7437 77.0221 32.9761 76.3386 32.9761C75.2779 32.9994 74.4766 32.186 74.4766 31.1402Z" fill="#EBBC06"/>
<path d="M80.7969 29.3506H81.4333V30.8379H83.1774V29.3506H83.8138V32.9527H83.1774V31.4421H81.4333V32.9527H80.7969V29.3506Z" fill="#EBBC06"/>
<path d="M87.0625 29.3506H87.6517L89.608 31.8372V29.3506H90.2444V32.9527H89.7023L87.6989 30.3964V32.9527H87.0625V29.3506Z" fill="#EBBC06"/>
<path d="M93.3125 31.1402C93.3125 30.1177 94.1139 29.2578 95.2216 29.2578C96.353 29.2578 97.1308 30.0944 97.1308 31.117C97.1308 32.1395 96.3294 32.9761 95.2216 32.9761C94.1139 32.9761 93.3125 32.1627 93.3125 31.1402ZM96.4708 31.1402C96.4708 30.4198 95.9523 29.8388 95.2216 29.8388C94.491 29.8388 93.996 30.4198 93.996 31.117C93.996 31.8141 94.5146 32.3951 95.2452 32.3951C95.9759 32.3951 96.4708 31.8606 96.4708 31.1402Z" fill="#EBBC06"/>
<path d="M100.219 29.3506H100.855V32.3717H102.764V32.9527H100.195V29.3506H100.219Z" fill="#EBBC06"/>
<path d="M105.383 31.1402C105.383 30.1177 106.184 29.2578 107.292 29.2578C108.423 29.2578 109.201 30.0944 109.201 31.117C109.201 32.1395 108.4 32.9761 107.292 32.9761C106.184 32.9761 105.383 32.1627 105.383 31.1402ZM108.518 31.1402C108.518 30.4198 107.999 29.8388 107.268 29.8388C106.538 29.8388 106.043 30.4198 106.043 31.117C106.043 31.8141 106.561 32.3951 107.292 32.3951C108.023 32.4184 108.518 31.8606 108.518 31.1402Z" fill="#EBBC06"/>
<path d="M112.094 31.1402C112.094 30.1177 112.872 29.2578 113.979 29.2578C114.616 29.2578 115.016 29.4437 115.393 29.7458L114.993 30.2339C114.71 30.0015 114.427 29.8388 113.979 29.8388C113.296 29.8388 112.801 30.4198 112.801 31.117C112.801 31.8606 113.296 32.3951 114.05 32.3951C114.404 32.3951 114.71 32.2789 114.922 32.1163V31.4423H113.979V30.8846H115.535V32.3951C115.181 32.6972 114.663 32.9529 114.003 32.9529C112.848 32.9994 112.094 32.2092 112.094 31.1402Z" fill="#EBBC06"/>
<path d="M118.695 29.3506H119.332V32.9527H118.695V29.3506Z" fill="#EBBC06"/>
<path d="M122.609 29.3506H125.32V29.9083H123.246V30.8379H125.084V31.3957H123.246V32.3717H125.343V32.9295H122.609V29.3506Z" fill="#EBBC06"/>
<path d="M128.172 32.419L128.549 31.9774C128.903 32.2795 129.256 32.4422 129.704 32.4422C130.105 32.4422 130.34 32.2563 130.34 32.0007C130.34 31.745 130.199 31.6056 129.515 31.4429C128.738 31.257 128.29 31.0246 128.29 30.3739C128.29 29.7464 128.808 29.3281 129.539 29.3281C130.081 29.3281 130.505 29.4908 130.859 29.7697L130.505 30.2577C130.175 30.0253 129.845 29.8859 129.515 29.8859C129.138 29.8859 128.926 30.0718 128.926 30.3042C128.926 30.5831 129.091 30.6993 129.798 30.8619C130.576 31.0478 130.977 31.3267 130.977 31.9077C130.977 32.5816 130.435 32.9767 129.68 32.9767C129.138 33 128.596 32.814 128.172 32.419Z" fill="#EBBC06"/>
</svg>
