<?xml version="1.0" standalone="no"?>
<!DOCTYPE svg PUBLIC "-//W3C//DTD SVG 20010904//EN"
 "http://www.w3.org/TR/2001/REC-SVG-20010904/DTD/svg10.dtd">
<svg version="1.0" xmlns="http://www.w3.org/2000/svg"
 width="6045.000000pt" height="1521.000000pt" viewBox="0 0 6045.000000 1521.000000"
 preserveAspectRatio="xMidYMid meet">

<g transform="translate(0.000000,1521.000000) scale(0.100000,-0.100000)"
fill="#000000" stroke="none">
<path d="M6384 15200 c-1649 -75 -3183 -737 -4363 -1885 -854 -830 -1468
-1867 -1786 -3016 -116 -418 -195 -897 -225 -1354 -7 -106 -10 -1637 -10
-4552 l0 -4393 53 5 c28 2 84 7 122 10 100 8 240 39 362 80 509 170 912 590
1063 1107 70 240 63 -130 70 3988 6 4120 0 3773 71 4190 261 1545 1264 2904
2669 3614 541 274 1083 436 1710 512 182 22 706 30 910 15 787 -60 1532 -296
2199 -696 1147 -689 1974 -1806 2291 -3095 108 -441 146 -795 137 -1295 -5
-312 -17 -451 -58 -705 -300 -1838 -1608 -3362 -3388 -3946 -315 -104 -682
-182 -1041 -221 -201 -22 -777 -25 -960 -5 -400 43 -708 106 -1047 214 l-163
52 0 2382 c0 1590 3 2416 10 2485 22 217 74 400 164 580 237 473 661 797 1180
901 93 19 144 23 311 23 222 0 338 -17 517 -76 490 -160 892 -554 1059 -1041
l23 -67 -95 -94 c-294 -289 -449 -655 -449 -1057 0 -996 968 -1701 1920 -1398
451 143 817 516 954 970 46 152 60 252 61 423 0 310 -80 575 -252 833 -73 109
-262 301 -370 376 -81 56 -82 57 -93 114 -105 526 -331 1013 -667 1437 -106
134 -384 414 -513 516 -491 390 -1018 618 -1640 710 -178 26 -547 36 -731 20
-962 -88 -1814 -560 -2389 -1326 -337 -449 -552 -964 -634 -1520 -35 -235 -36
-347 -36 -3310 l0 -2942 148 -80 c798 -437 1651 -697 2582 -788 222 -22 756
-31 990 -16 689 43 1332 179 1955 413 1564 589 2858 1750 3615 3244 896 1768
952 3866 153 5679 -265 601 -590 1118 -1036 1649 -142 169 -574 601 -743 743
-531 446 -1048 771 -1649 1036 -920 405 -1964 602 -2961 557z"/>
<path d="M34386 14010 c-61 -24 -122 -81 -150 -140 -21 -45 -21 -50 -24 -962
l-3 -917 -457 -3 -457 -3 -50 -27 c-62 -32 -98 -70 -124 -128 -20 -43 -21 -64
-21 -539 0 -359 3 -505 12 -535 17 -57 99 -138 162 -159 43 -15 104 -17 492
-17 l443 0 4 -1162 c4 -1262 4 -1253 63 -1538 167 -813 717 -1303 1614 -1439
240 -36 406 -42 1030 -39 568 3 597 4 635 23 57 28 111 89 135 151 19 53 20
76 20 563 0 443 -2 515 -16 559 -23 69 -64 115 -132 149 l-57 28 -530 6 c-569
6 -557 5 -669 61 -160 81 -267 283 -296 558 -6 56 -10 504 -10 1088 l0 992
698 0 c799 0 760 -4 847 84 32 32 55 66 63 92 9 30 12 176 12 535 0 475 -1
496 -21 539 -26 58 -62 96 -124 128 l-50 27 -712 3 -713 3 -2 927 c-3 882 -4
929 -22 962 -26 49 -74 98 -121 123 -40 22 -44 22 -730 24 -662 2 -692 2 -739
-17z"/>
<path d="M18620 12093 c-284 -16 -585 -90 -793 -195 -236 -118 -481 -303 -638
-481 l-69 -78 0 214 c0 235 -7 274 -59 338 -16 19 -53 48 -82 64 l-54 30 -685
0 -685 0 -53 -29 c-57 -32 -98 -79 -118 -135 -11 -29 -13 -734 -13 -3646 -1
-3609 -1 -3610 20 -3655 25 -55 71 -105 124 -133 40 -22 41 -22 775 -22 690 0
737 1 771 18 51 26 108 84 133 137 21 45 21 49 26 1263 l5 1218 38 -50 c67
-88 253 -258 364 -331 189 -127 372 -208 586 -260 446 -109 1004 -82 1417 70
676 248 1127 778 1330 1565 84 322 109 557 117 1060 11 741 -39 1170 -187
1600 -241 698 -738 1178 -1404 1355 -260 69 -577 100 -866 83z m-110 -1472
c172 -44 331 -150 435 -290 126 -172 211 -474 235 -836 36 -545 -24 -1035
-161 -1309 -109 -218 -283 -360 -514 -418 -80 -20 -113 -23 -300 -22 -184 0
-220 3 -290 22 -253 70 -449 232 -569 469 -109 218 -136 398 -136 924 0 431
20 613 92 838 56 177 134 307 249 417 131 124 253 186 432 220 112 21 418 12
527 -15z"/>
<path d="M24515 12090 c-1124 -71 -1913 -531 -2306 -1345 -153 -316 -234 -655
-260 -1090 -13 -221 -6 -935 11 -1090 41 -374 125 -682 265 -970 215 -441 551
-772 1010 -995 476 -231 1121 -338 1805 -301 558 31 977 131 1357 325 741 377
1150 1048 1234 2021 16 187 16 907 0 1100 -58 697 -290 1227 -717 1635 -411
394 -956 621 -1665 695 -179 18 -559 26 -734 15z m560 -1339 c414 -108 617
-450 665 -1121 13 -186 13 -681 0 -875 -39 -574 -195 -907 -495 -1055 -139
-68 -228 -85 -460 -84 -224 1 -288 12 -427 77 -279 130 -442 412 -497 855 -6
46 -16 210 -22 364 -13 315 0 765 27 960 69 496 288 794 644 877 125 29 130
30 315 26 132 -2 188 -8 250 -24z"/>
<path d="M48545 12089 c-209 -19 -434 -74 -603 -148 -249 -107 -532 -319 -704
-524 l-48 -58 0 207 c0 129 -4 221 -12 246 -15 50 -78 122 -132 151 -41 22
-42 22 -690 25 -582 2 -654 1 -699 -14 -59 -20 -120 -72 -150 -128 l-22 -41 0
-2605 0 -2605 30 -54 c36 -66 85 -107 149 -126 77 -23 1382 -22 1449 1 60 20
129 82 159 142 l23 47 5 1645 6 1645 23 99 c64 283 195 468 403 570 140 69
196 81 378 81 177 0 244 -15 381 -86 193 -100 343 -317 393 -564 33 -163 36
-322 36 -1855 0 -1480 1 -1536 19 -1576 30 -66 86 -121 147 -144 53 -19 75
-20 724 -20 649 0 671 1 724 20 57 22 109 70 143 132 17 31 18 116 24 1663 4
1201 8 1648 17 1700 34 196 89 336 182 458 95 125 242 216 415 258 77 18 110
20 225 16 78 -3 163 -12 200 -22 291 -76 477 -297 547 -650 16 -83 18 -213 23
-1730 l5 -1640 23 -47 c13 -26 44 -66 69 -88 83 -72 65 -71 829 -68 675 3 679
3 719 25 23 12 60 42 82 66 78 85 73 -43 73 1751 0 1595 -3 1774 -36 2021
-101 769 -476 1351 -1049 1631 -494 240 -1111 266 -1641 69 -361 -135 -710
-403 -917 -705 l-55 -81 -37 68 c-136 247 -306 433 -528 577 -200 131 -457
218 -747 256 -118 15 -435 21 -555 9z"/>
<path d="M57640 12094 c-546 -31 -929 -123 -1320 -319 -229 -115 -389 -232
-580 -425 -239 -241 -383 -508 -397 -737 -7 -110 9 -165 63 -212 70 -62 73
-62 800 -59 645 3 660 3 704 24 69 32 105 68 174 173 145 219 324 335 575 372
120 17 362 7 466 -20 317 -83 455 -316 455 -772 l0 -137 -32 -6 c-18 -3 -316
-49 -663 -101 -778 -118 -874 -134 -1105 -191 -802 -196 -1371 -540 -1632
-987 -196 -336 -240 -822 -109 -1208 57 -167 123 -289 240 -439 441 -567 1219
-841 2081 -734 497 62 971 311 1243 653 l52 65 5 -224 c5 -223 5 -225 32 -272
16 -25 45 -61 65 -78 75 -61 71 -61 814 -58 l674 3 43 23 c24 13 60 41 82 63
77 79 71 -87 67 1939 -3 1669 -4 1823 -20 1915 -85 487 -254 828 -553 1115
-150 143 -274 230 -480 333 -301 150 -678 249 -1094 286 -124 12 -544 21 -650
15z m960 -3318 c0 -288 -41 -493 -140 -691 -93 -189 -200 -310 -361 -407 -332
-202 -820 -208 -1117 -15 -168 110 -252 254 -252 433 0 304 271 525 790 645
76 17 1030 187 1058 188 22 1 22 0 22 -153z"/>
<path d="M28900 11981 c-82 -25 -159 -101 -181 -178 -21 -72 -21 -5144 0
-5216 16 -57 77 -129 135 -160 l41 -22 724 -3 c814 -3 791 -5 874 68 25 22 56
62 69 88 l23 47 5 1510 5 1510 27 98 c76 275 237 460 482 552 154 58 147 58
861 64 l660 6 48 23 c26 13 63 43 82 66 67 82 65 64 65 734 0 434 -3 616 -12
644 -15 50 -78 122 -132 151 -40 22 -48 22 -431 22 -413 0 -474 -5 -682 -51
-378 -84 -696 -257 -965 -526 l-108 -108 0 238 c0 227 -1 239 -24 287 -12 28
-43 69 -69 92 -81 75 -64 73 -811 72 -364 0 -672 -4 -686 -8z"/>
<path d="M38720 11975 c-60 -19 -123 -74 -152 -133 l-23 -47 0 -1665 c0 -1755
0 -1760 46 -2030 78 -458 262 -865 527 -1165 402 -455 1010 -680 1715 -636
350 22 611 80 870 192 253 109 498 295 668 506 l58 73 3 -238 c3 -271 7 -284
93 -360 86 -75 58 -73 821 -70 676 3 679 3 720 25 48 26 110 91 132 142 16 33
17 241 20 2601 3 2911 11 2652 -78 2741 -82 82 -52 79 -865 79 -788 0 -775 1
-852 -64 -22 -20 -51 -58 -64 -88 l-24 -53 -6 -1615 c-6 -1696 -4 -1634 -51
-1795 -85 -293 -313 -518 -609 -601 -183 -51 -502 -43 -674 16 -115 40 -217
102 -295 180 -117 118 -184 252 -233 465 -21 89 -21 114 -27 1720 -5 1628 -5
1630 -26 1675 -11 25 -41 64 -67 87 -82 75 -58 73 -866 72 -583 0 -724 -3
-761 -14z"/>
</g>
</svg>
