<?xml version="1.0" encoding="utf-8"?>
<!-- Generator: Adobe Illustrator 21.0.0, SVG Export Plug-In . SVG Version: 6.00 Build 0)  -->
<svg version="1.1" id="katman_1" xmlns="http://www.w3.org/2000/svg" xmlns:xlink="http://www.w3.org/1999/xlink" x="0px" y="0px"
	 viewBox="0 0 2000 2000" style="enable-background:new 0 0 2000 2000;" xml:space="preserve">
<style type="text/css">
	.st0{clip-path:url(#SVGID_5_);}
	.st1{clip-path:url(#SVGID_6_);}
	.st2{clip-path:url(#SVGID_7_);}
	.st3{display:none;}
	.st4{display:inline;fill:#FFFFFF;}
	.st5{display:inline;}
	.st6{display:inline;clip-path:url(#SVGID_17_);}
	.st7{display:inline;clip-path:url(#SVGID_18_);}
	.st8{display:inline;clip-path:url(#SVGID_19_);}
</style>
<g>
	<path d="M659.6,1444.1v90.3h-55.8v-90.3l-101.1-161.6h66.6l63.4,100.8l64.8-100.8h64.4L659.6,1444.1z"/>
	<path d="M997.6,1426.5c0,15.4-2,29.3-6.1,41.8c-4.1,12.5-9.5,22.9-16.2,31.3c-6.7,8.4-14.7,15.5-23.9,21.2
		c-9.2,5.8-18.9,9.9-29,12.4c-10.1,2.5-20.6,3.8-31.7,3.8c-31.9,0-58.7-9.8-80.3-29.5c-21.6-19.7-32.4-47.4-32.4-83.1v-141.8h55.8
		v135.3c0,20.4,4.9,36.7,14.8,48.8c9.8,12.1,23.9,18.2,42.1,18.2c34.1,0,51.1-21.8,51.1-65.5v-136.8h55.8V1426.5z"/>
	<path d="M1040.8,1282.5h55.8v199.8h136.1v52.2h-191.9V1282.5z"/>
	<path d="M1345.3,1282.5h41.4l110.5,252h-58.3l-20.5-46.8h-105.5l-20.5,46.8h-57.6L1345.3,1282.5z M1332.3,1440.5h65.5l-32.4-75.2
		L1332.3,1440.5z"/>
</g>
<g>
	<defs>
		<path id="SVGID_1_" d="M872.5,462.7l88.2,50.9c9.7-10.7,23.7-17.4,39.2-17.4c15.6,0,29.5,6.7,39.2,17.4l88.2-50.9
			c-1.6-5.1-2.5-10.5-2.5-16.1c0-29.3,23.8-53.1,53.1-53.1s53,23.8,53,53.1c0,29.3-23.7,53.1-53,53.1c-15.6,0-29.5-6.7-39.3-17.3
			l-88.2,50.9c1.6,5.1,2.5,10.5,2.5,16.1c0,29.3-23.8,53-53.1,53c-29.3,0-53-23.7-53-53c0-5.6,0.9-11,2.5-16.1l-88.2-50.9
			c-9.7,10.7-23.7,17.3-39.2,17.3c-29.3,0-53.1-23.8-53.1-53.1c0-29.3,23.8-53.1,53.1-53.1c29.3,0,53,23.8,53,53.1
			C875,452.2,874.1,457.6,872.5,462.7z"/>
	</defs>
	<defs>
		<path id="SVGID_2_" d="M1316.6,790.5l-88.2,50.9c1.6,5.1,2.5,10.5,2.5,16.2c0,25.4-17.9,46.7-41.7,51.8v101.8
			c23.9,5.2,41.7,26.4,41.7,51.8c0,29.3-23.7,53.1-53,53.1s-53.1-23.8-53.1-53.1c0-25.4,17.9-46.7,41.7-51.8V909.4
			c-23.9-5.2-41.7-26.4-41.7-51.8c0-29.3,23.8-53.1,53.1-53.1c15.6,0,29.6,6.7,39.3,17.4l88.2-50.9c-1.6-5.1-2.5-10.5-2.5-16.2
			c0-29.3,23.8-53.1,53-53.1c29.3,0,53.1,23.8,53.1,53.1c0,29.3-23.8,53.1-53.1,53.1C1340.3,807.9,1326.3,801.2,1316.6,790.5z"/>
	</defs>
	<defs>
		<path id="SVGID_3_" d="M694.5,771l88.2,50.9c9.7-10.7,23.7-17.4,39.3-17.4c29.3,0,53,23.7,53,53.1c0,25.4-17.9,46.7-41.7,51.8
			v101.8c23.9,5.2,41.7,26.4,41.7,51.8c0,29.3-23.8,53.1-53,53.1c-29.3,0-53.1-23.8-53.1-53.1c0-25.4,17.9-46.7,41.7-51.8V909.4
			c-23.9-5.2-41.7-26.4-41.7-51.8c0-5.6,0.9-11.1,2.5-16.2l-88.2-50.9c-9.7,10.7-23.7,17.4-39.3,17.4c-29.3,0-53.1-23.8-53.1-53.1
			c0-29.3,23.8-53.1,53.1-53.1c29.3,0,53.1,23.8,53.1,53.1C697,760.5,696.1,765.9,694.5,771z"/>
	</defs>
	<defs>
		<path id="SVGID_4_" d="M1039.2,719.1l88.2-50.9c-1.6-5.1-2.5-10.5-2.5-16.1c0-29.3,23.8-53.1,53.1-53.1c15.6,0,29.5,6.7,39.2,17.4
			l88.2-50.9c-1.6-5.1-2.5-10.5-2.5-16.1c0-29.3,23.8-53.1,53-53.1c29.3,0,53.1,23.7,53.1,53.1c0,29.3-23.8,53-53.1,53
			c-15.6,0-29.5-6.7-39.2-17.3l-88.2,50.9c1.6,5.1,2.5,10.5,2.5,16.1c0,29.3-23.7,53.1-53,53.1c-15.6,0-29.5-6.7-39.3-17.4
			l-88.2,50.9c1.6,5.1,2.5,10.5,2.5,16.1c0,25.4-17.9,46.7-41.7,51.8v101.8c23.8,5.2,41.7,26.4,41.7,51.8
			c0,25.4-17.9,46.7-41.7,51.8V1114c23.8,5.2,41.7,26.4,41.7,51.9c0,29.3-23.8,53.1-53.1,53.1c-29.3,0-53-23.8-53-53.1
			c0-25.4,17.9-46.6,41.7-51.9v-101.8c-23.9-5.2-41.7-26.4-41.7-51.8c0-25.4,17.9-46.7,41.7-51.8V806.7
			c-23.9-5.2-41.7-26.4-41.7-51.8c0-5.6,0.9-11.1,2.5-16.1l-88.2-50.9c-9.7,10.7-23.7,17.4-39.2,17.4c-29.3,0-53.1-23.8-53.1-53.1
			c0-5.6,0.9-11.1,2.5-16.1L683.2,585c-9.7,10.7-23.7,17.3-39.2,17.3c-29.3,0-53.1-23.7-53.1-53c0-29.3,23.8-53.1,53.1-53.1
			c29.3,0,53.1,23.7,53.1,53.1c0,5.6-0.9,11-2.5,16.1l88.2,50.9c9.7-10.7,23.7-17.4,39.2-17.4c29.3,0,53,23.8,53,53.1
			c0,5.6-0.9,11-2.5,16.1l88.2,50.9c9.7-10.7,23.7-17.4,39.2-17.4C1015.5,701.8,1029.4,708.5,1039.2,719.1z"/>
	</defs>
	<clipPath id="SVGID_5_">
		<use xlink:href="#SVGID_1_"  style="overflow:visible;"/>
	</clipPath>
	<clipPath id="SVGID_6_" class="st0">
		<use xlink:href="#SVGID_2_"  style="overflow:visible;"/>
	</clipPath>
	<clipPath id="SVGID_7_" class="st1">
		<use xlink:href="#SVGID_3_"  style="overflow:visible;"/>
	</clipPath>
	<clipPath id="SVGID_8_" class="st2">
		<use xlink:href="#SVGID_4_"  style="overflow:visible;"/>
	</clipPath>
	<linearGradient id="SVGID_9_" gradientUnits="userSpaceOnUse" x1="590.8862" y1="806.2192" x2="1408.9227" y2="806.2192">
		<stop  offset="0" style="stop-color:#243E90"/>
		<stop  offset="1" style="stop-color:#35C6F4"/>
	</linearGradient>
	
		<use xlink:href="#SVGID_1_"  style="overflow:visible;fill-rule:evenodd;clip-rule:evenodd;fill:none;stroke:url(#SVGID_9_);stroke-width:8;stroke-miterlimit:10;"/>
	<linearGradient id="SVGID_10_" gradientUnits="userSpaceOnUse" x1="590.8862" y1="806.2192" x2="1408.9227" y2="806.2192">
		<stop  offset="0" style="stop-color:#243E90"/>
		<stop  offset="1" style="stop-color:#35C6F4"/>
	</linearGradient>
	
		<use xlink:href="#SVGID_2_"  style="overflow:visible;fill-rule:evenodd;clip-rule:evenodd;fill:none;stroke:url(#SVGID_10_);stroke-width:8;stroke-miterlimit:10;"/>
	<linearGradient id="SVGID_11_" gradientUnits="userSpaceOnUse" x1="590.8862" y1="806.2192" x2="1408.9227" y2="806.2192">
		<stop  offset="0" style="stop-color:#243E90"/>
		<stop  offset="1" style="stop-color:#35C6F4"/>
	</linearGradient>
	
		<use xlink:href="#SVGID_3_"  style="overflow:visible;fill-rule:evenodd;clip-rule:evenodd;fill:none;stroke:url(#SVGID_11_);stroke-width:8;stroke-miterlimit:10;"/>
	<linearGradient id="SVGID_12_" gradientUnits="userSpaceOnUse" x1="590.8862" y1="806.2192" x2="1408.9227" y2="806.2192">
		<stop  offset="0" style="stop-color:#243E90"/>
		<stop  offset="1" style="stop-color:#35C6F4"/>
	</linearGradient>
	
		<use xlink:href="#SVGID_4_"  style="overflow:visible;fill-rule:evenodd;clip-rule:evenodd;fill:none;stroke:url(#SVGID_12_);stroke-width:8;stroke-miterlimit:10;"/>
</g>
<g class="st3">
	<path class="st4" d="M794.7,1733v54.5h-33.6V1733l-61-97.5h40.2l38.2,60.8l39.1-60.8h38.9L794.7,1733z"/>
	<path class="st4" d="M998.5,1722.4c0,9.3-1.2,17.7-3.7,25.2s-5.7,13.8-9.8,18.9c-4.1,5.1-8.9,9.3-14.4,12.8s-11.4,6-17.5,7.5
		c-6.1,1.5-12.4,2.3-19.1,2.3c-19.2,0-35.4-5.9-48.4-17.8s-19.5-28.6-19.5-50.1v-85.5h33.6v81.6c0,12.3,3,22.1,8.9,29.4
		c5.9,7.3,14.4,11,25.4,11c20.5,0,30.8-13.2,30.8-39.5v-82.5h33.6V1722.4z"/>
	<path class="st4" d="M1024.5,1635.6h33.6V1756h82v31.5h-115.7V1635.6z"/>
	<path class="st4" d="M1208.2,1635.6h25l66.6,151.9h-35.2l-12.4-28.2h-63.6l-12.4,28.2h-34.7L1208.2,1635.6z M1200.3,1730.8h39.5
		l-19.5-45.4L1200.3,1730.8z"/>
</g>
<g class="st3">
	<defs>
		<path id="SVGID_13_" d="M923.1,1141.2l53.2,30.7c5.9-6.4,14.3-10.5,23.7-10.5c9.4,0,17.8,4,23.7,10.5l53.2-30.7
			c-1-3.1-1.5-6.3-1.5-9.7c0-17.7,14.3-32,32-32s32,14.3,32,32c0,17.7-14.3,32-32,32c-9.4,0-17.8-4-23.7-10.5l-53.2,30.7
			c1,3.1,1.5,6.3,1.5,9.7c0,17.7-14.3,32-32,32c-17.7,0-32-14.3-32-32c0-3.4,0.5-6.7,1.5-9.7l-53.2-30.7
			c-5.9,6.4-14.3,10.5-23.7,10.5c-17.7,0-32-14.3-32-32c0-17.7,14.3-32,32-32c17.7,0,32,14.3,32,32
			C924.6,1134.9,924.1,1138.2,923.1,1141.2z"/>
	</defs>
	<defs>
		<path id="SVGID_14_" d="M1190.9,1338.9l-53.2,30.7c1,3.1,1.5,6.3,1.5,9.7c0,15.3-10.8,28.1-25.2,31.3v61.4
			c14.4,3.1,25.2,15.9,25.2,31.3c0,17.7-14.3,32-32,32s-32-14.3-32-32c0-15.3,10.8-28.1,25.2-31.3v-61.4
			c-14.4-3.1-25.2-15.9-25.2-31.3c0-17.7,14.3-32,32-32c9.4,0,17.8,4,23.7,10.5l53.2-30.7c-1-3.1-1.5-6.4-1.5-9.8
			c0-17.7,14.3-32,32-32c17.7,0,32,14.3,32,32c0,17.7-14.3,32-32,32C1205.2,1349.4,1196.7,1345.3,1190.9,1338.9z"/>
	</defs>
	<defs>
		<path id="SVGID_15_" d="M815.7,1327.1l53.2,30.7c5.8-6.4,14.3-10.5,23.7-10.5c17.7,0,32,14.3,32,32c0,15.3-10.8,28.1-25.2,31.3
			v61.4c14.4,3.1,25.2,15.9,25.2,31.3c0,17.7-14.3,32-32,32c-17.7,0-32-14.3-32-32c0-15.3,10.8-28.1,25.2-31.3v-61.4
			c-14.4-3.1-25.2-15.9-25.2-31.3c0-3.4,0.5-6.7,1.5-9.7l-53.2-30.7c-5.9,6.4-14.3,10.5-23.7,10.5c-17.7,0-32-14.3-32-32
			c0-17.7,14.3-32,32-32c17.7,0,32,14.3,32,32C817.3,1320.8,816.7,1324.1,815.7,1327.1z"/>
	</defs>
	<defs>
		<path id="SVGID_16_" d="M1023.6,1295.8l53.2-30.7c-1-3.1-1.5-6.3-1.5-9.7c0-17.7,14.3-32,32-32c9.4,0,17.8,4,23.7,10.5l53.2-30.7
			c-1-3.1-1.5-6.3-1.5-9.7c0-17.7,14.3-32,32-32c17.7,0,32,14.3,32,32c0,17.7-14.3,32-32,32c-9.4,0-17.8-4-23.7-10.5l-53.2,30.7
			c1,3.1,1.5,6.3,1.5,9.7c0,17.7-14.3,32-32,32c-9.4,0-17.8-4-23.7-10.5l-53.2,30.7c1,3.1,1.5,6.3,1.5,9.7
			c0,15.3-10.8,28.1-25.2,31.3v61.4c14.4,3.1,25.2,15.9,25.2,31.3s-10.8,28.1-25.2,31.3v61.4c14.4,3.1,25.2,15.9,25.2,31.3
			c0,17.7-14.3,32-32,32c-17.7,0-32-14.3-32-32c0-15.3,10.8-28.1,25.2-31.3v-61.4c-14.4-3.1-25.2-15.9-25.2-31.3
			s10.8-28.1,25.2-31.3v-61.4c-14.4-3.1-25.2-15.9-25.2-31.3c0-3.4,0.5-6.7,1.5-9.7l-53.2-30.7c-5.9,6.4-14.3,10.5-23.7,10.5
			c-17.7,0-32-14.3-32-32c0-3.4,0.5-6.7,1.5-9.7l-53.2-30.7c-5.9,6.4-14.3,10.5-23.7,10.5c-17.7,0-32-14.3-32-32
			c0-17.7,14.3-32,32-32c17.7,0,32,14.3,32,32c0,3.4-0.5,6.7-1.5,9.7l53.2,30.7c5.9-6.4,14.3-10.5,23.7-10.5c17.7,0,32,14.3,32,32
			c0,3.4-0.5,6.7-1.5,9.7l53.2,30.7c5.9-6.4,14.3-10.5,23.7-10.5C1009.3,1285.4,1017.7,1289.4,1023.6,1295.8z"/>
	</defs>
	<clipPath id="SVGID_17_" class="st5">
		<use xlink:href="#SVGID_13_"  style="overflow:visible;"/>
	</clipPath>
	<clipPath id="SVGID_18_" class="st6">
		<use xlink:href="#SVGID_14_"  style="overflow:visible;"/>
	</clipPath>
	<clipPath id="SVGID_19_" class="st7">
		<use xlink:href="#SVGID_15_"  style="overflow:visible;"/>
	</clipPath>
	<clipPath id="SVGID_20_" class="st8">
		<use xlink:href="#SVGID_16_"  style="overflow:visible;"/>
	</clipPath>
	<linearGradient id="SVGID_21_" gradientUnits="userSpaceOnUse" x1="753.2762" y1="1348.3596" x2="1246.5326" y2="1348.3596">
		<stop  offset="0" style="stop-color:#243E90"/>
		<stop  offset="1" style="stop-color:#35C6F4"/>
	</linearGradient>
	
		<use xlink:href="#SVGID_13_"  style="display:inline;overflow:visible;fill-rule:evenodd;clip-rule:evenodd;fill:none;stroke:url(#SVGID_21_);stroke-width:8;stroke-miterlimit:10;"/>
	<linearGradient id="SVGID_22_" gradientUnits="userSpaceOnUse" x1="753.2762" y1="1348.3596" x2="1246.5326" y2="1348.3596">
		<stop  offset="0" style="stop-color:#243E90"/>
		<stop  offset="1" style="stop-color:#35C6F4"/>
	</linearGradient>
	
		<use xlink:href="#SVGID_14_"  style="display:inline;overflow:visible;fill-rule:evenodd;clip-rule:evenodd;fill:none;stroke:url(#SVGID_22_);stroke-width:8;stroke-miterlimit:10;"/>
	<linearGradient id="SVGID_23_" gradientUnits="userSpaceOnUse" x1="753.2762" y1="1348.3596" x2="1246.5326" y2="1348.3596">
		<stop  offset="0" style="stop-color:#243E90"/>
		<stop  offset="1" style="stop-color:#35C6F4"/>
	</linearGradient>
	
		<use xlink:href="#SVGID_15_"  style="display:inline;overflow:visible;fill-rule:evenodd;clip-rule:evenodd;fill:none;stroke:url(#SVGID_23_);stroke-width:8;stroke-miterlimit:10;"/>
	<linearGradient id="SVGID_24_" gradientUnits="userSpaceOnUse" x1="753.2762" y1="1348.3596" x2="1246.5326" y2="1348.3596">
		<stop  offset="0" style="stop-color:#243E90"/>
		<stop  offset="1" style="stop-color:#35C6F4"/>
	</linearGradient>
	
		<use xlink:href="#SVGID_16_"  style="display:inline;overflow:visible;fill-rule:evenodd;clip-rule:evenodd;fill:none;stroke:url(#SVGID_24_);stroke-width:8;stroke-miterlimit:10;"/>
</g>
</svg>
